<mxfile host="65bd71144e">
    <diagram id="yfHIlKXAV8Z9Tdk6UlnS" name="Page-1">
        <mxGraphModel dx="521" dy="441" grid="0" gridSize="10" guides="1" tooltips="1" connect="1" arrows="1" fold="1" page="1" pageScale="1" pageWidth="4681" pageHeight="3300" math="0" shadow="0">
            <root>
                <mxCell id="0"/>
                <mxCell id="1" parent="0"/>
                <mxCell id="2" value="[" style="text;html=1;align=center;verticalAlign=middle;resizable=0;points=[];autosize=1;strokeColor=none;fillColor=none;fontSize=20;fontFamily=Helvetica;hachureGap=4;rounded=1;" vertex="1" parent="1">
                    <mxGeometry x="150" y="280" width="30" height="40" as="geometry"/>
                </mxCell>
                <mxCell id="3" value="]" style="text;html=1;align=center;verticalAlign=middle;resizable=0;points=[];autosize=1;strokeColor=none;fillColor=none;fontSize=20;fontFamily=Helvetica;hachureGap=4;rounded=1;" vertex="1" parent="1">
                    <mxGeometry x="520" y="280" width="30" height="40" as="geometry"/>
                </mxCell>
                <mxCell id="4" value="100" style="text;html=1;align=center;verticalAlign=middle;resizable=0;points=[];autosize=1;strokeColor=none;fillColor=none;fontSize=20;fontFamily=Helvetica;hachureGap=4;rounded=1;" vertex="1" parent="1">
                    <mxGeometry x="160" y="280" width="60" height="40" as="geometry"/>
                </mxCell>
                <mxCell id="5" value="200" style="text;html=1;align=center;verticalAlign=middle;resizable=0;points=[];autosize=1;strokeColor=none;fillColor=none;fontSize=20;fontFamily=Helvetica;hachureGap=4;rounded=1;" vertex="1" parent="1">
                    <mxGeometry x="240" y="280" width="60" height="40" as="geometry"/>
                </mxCell>
                <mxCell id="6" value="300" style="text;html=1;align=center;verticalAlign=middle;resizable=0;points=[];autosize=1;strokeColor=none;fillColor=none;fontSize=20;fontFamily=Helvetica;hachureGap=4;rounded=1;" vertex="1" parent="1">
                    <mxGeometry x="320" y="280" width="60" height="40" as="geometry"/>
                </mxCell>
                <mxCell id="7" value="400" style="text;html=1;align=center;verticalAlign=middle;resizable=0;points=[];autosize=1;strokeColor=none;fillColor=none;fontSize=20;fontFamily=Helvetica;hachureGap=4;rounded=1;" vertex="1" parent="1">
                    <mxGeometry x="400" y="280" width="60" height="40" as="geometry"/>
                </mxCell>
                <mxCell id="8" value="500" style="text;html=1;align=center;verticalAlign=middle;resizable=0;points=[];autosize=1;strokeColor=none;fillColor=none;fontSize=20;fontFamily=Helvetica;hachureGap=4;rounded=1;" vertex="1" parent="1">
                    <mxGeometry x="480" y="280" width="60" height="40" as="geometry"/>
                </mxCell>
                <mxCell id="10" value="0" style="text;html=1;align=center;verticalAlign=middle;resizable=0;points=[];autosize=1;strokeColor=none;fillColor=none;fontFamily=Helvetica;" vertex="1" parent="1">
                    <mxGeometry x="175" y="265" width="30" height="30" as="geometry"/>
                </mxCell>
                <mxCell id="11" value="1" style="text;html=1;align=center;verticalAlign=middle;resizable=0;points=[];autosize=1;strokeColor=none;fillColor=none;fontFamily=Helvetica;" vertex="1" parent="1">
                    <mxGeometry x="255" y="265" width="30" height="30" as="geometry"/>
                </mxCell>
                <mxCell id="12" value="2" style="text;html=1;align=center;verticalAlign=middle;resizable=0;points=[];autosize=1;strokeColor=none;fillColor=none;fontFamily=Helvetica;" vertex="1" parent="1">
                    <mxGeometry x="335" y="265" width="30" height="30" as="geometry"/>
                </mxCell>
                <mxCell id="13" value="3" style="text;html=1;align=center;verticalAlign=middle;resizable=0;points=[];autosize=1;strokeColor=none;fillColor=none;fontFamily=Helvetica;" vertex="1" parent="1">
                    <mxGeometry x="415" y="265" width="30" height="30" as="geometry"/>
                </mxCell>
                <mxCell id="14" value="4" style="text;html=1;align=center;verticalAlign=middle;resizable=0;points=[];autosize=1;strokeColor=none;fillColor=none;fontFamily=Helvetica;" vertex="1" parent="1">
                    <mxGeometry x="495" y="265" width="30" height="30" as="geometry"/>
                </mxCell>
                <mxCell id="15" value="-1" style="text;html=1;align=center;verticalAlign=middle;resizable=0;points=[];autosize=1;strokeColor=none;fillColor=none;fontFamily=Helvetica;" vertex="1" parent="1">
                    <mxGeometry x="495" y="310" width="30" height="30" as="geometry"/>
                </mxCell>
                <mxCell id="16" value="-2" style="text;html=1;align=center;verticalAlign=middle;resizable=0;points=[];autosize=1;strokeColor=none;fillColor=none;fontFamily=Helvetica;" vertex="1" parent="1">
                    <mxGeometry x="415" y="310" width="30" height="30" as="geometry"/>
                </mxCell>
                <mxCell id="17" value="-3" style="text;html=1;align=center;verticalAlign=middle;resizable=0;points=[];autosize=1;strokeColor=none;fillColor=none;fontFamily=Helvetica;" vertex="1" parent="1">
                    <mxGeometry x="335" y="310" width="30" height="30" as="geometry"/>
                </mxCell>
                <mxCell id="18" value="-4" style="text;html=1;align=center;verticalAlign=middle;resizable=0;points=[];autosize=1;strokeColor=none;fillColor=none;fontFamily=Helvetica;" vertex="1" parent="1">
                    <mxGeometry x="255" y="310" width="30" height="30" as="geometry"/>
                </mxCell>
                <mxCell id="19" value="-5" style="text;html=1;align=center;verticalAlign=middle;resizable=0;points=[];autosize=1;strokeColor=none;fillColor=none;fontFamily=Helvetica;" vertex="1" parent="1">
                    <mxGeometry x="175" y="310" width="30" height="30" as="geometry"/>
                </mxCell>
            </root>
        </mxGraphModel>
    </diagram>
</mxfile>